<?xml version="1.0" encoding="UTF-8"?>
<!DOCTYPE svg PUBLIC "-//W3C//DTD SVG 1.1//EN" "http://www.w3.org/Graphics/SVG/1.1/DTD/svg11.dtd">
<svg xmlns="http://www.w3.org/2000/svg" version="1.1" width="500px" height="500px" style="shape-rendering:geometricPrecision; text-rendering:geometricPrecision; image-rendering:optimizeQuality; fill-rule:evenodd; clip-rule:evenodd" xmlns:xlink="http://www.w3.org/1999/xlink">
<g><path style="opacity:1" fill="#fefeff" d="M -0.5,-0.5 C 166.167,-0.5 332.833,-0.5 499.5,-0.5C 499.5,166.167 499.5,332.833 499.5,499.5C 332.833,499.5 166.167,499.5 -0.5,499.5C -0.5,332.833 -0.5,166.167 -0.5,-0.5 Z"/></g>
<g><path style="opacity:1" fill="#8c52fe" d="M 227.5,52.5 C 293.803,47.7566 349.97,69.09 396,116.5C 449.038,179.729 460.705,250.063 431,327.5C 400.252,393.807 348.752,432.973 276.5,445C 199.674,452.987 137.507,426.821 90,366.5C 52.8001,312.114 43.1334,253.114 61,189.5C 89.8157,111.349 145.316,65.6828 227.5,52.5 Z"/></g>
<g><path style="opacity:1" fill="#fcfbfe" d="M 311.5,156.5 C 303.606,179.737 297.106,203.403 292,227.5C 290.743,232.281 288.909,236.781 286.5,241C 280.372,243.76 275.205,242.594 271,237.5C 263.277,220.722 256.11,203.722 249.5,186.5C 242.125,203.451 235.625,220.784 230,238.5C 226.229,242.788 221.729,243.621 216.5,241C 214.383,239.269 212.883,237.102 212,234.5C 203.086,207.931 195.92,180.931 190.5,153.5C 192.043,149.142 195.21,146.808 200,146.5C 202.527,147.024 204.527,148.358 206,150.5C 210.866,172.961 216.199,195.295 222,217.5C 229.171,198.65 236.338,179.817 243.5,161C 248.966,158.452 253.8,159.286 258,163.5C 263.684,181.555 270.351,199.222 278,216.5C 283.787,195.249 289.453,173.916 295,152.5C 298.699,145.627 303.699,144.627 310,149.5C 311.202,151.677 311.702,154.011 311.5,156.5 Z"/></g>
<g><path style="opacity:1" fill="#8c55f6" d="M 190.5,153.5 C 195.92,180.931 203.086,207.931 212,234.5C 212.883,237.102 214.383,239.269 216.5,241C 221.729,243.621 226.229,242.788 230,238.5C 235.625,220.784 242.125,203.451 249.5,186.5C 256.11,203.722 263.277,220.722 271,237.5C 275.205,242.594 280.372,243.76 286.5,241C 288.909,236.781 290.743,232.281 292,227.5C 297.106,203.403 303.606,179.737 311.5,156.5C 312.641,159.64 312.808,162.973 312,166.5C 304.887,189.284 298.554,212.284 293,235.5C 288.544,250.656 280.544,252.989 269,242.5C 262.944,229.665 257.278,216.665 252,203.5C 251.261,202.426 250.261,201.759 249,201.5C 247.181,203.126 245.848,205.126 245,207.5C 240.53,219.911 235.863,232.244 231,244.5C 224.385,251.199 218.051,250.866 212,243.5C 201.994,216.812 194.161,189.479 188.5,161.5C 188.964,158.651 189.631,155.984 190.5,153.5 Z"/></g>
<g><path style="opacity:1" fill="#f8f5ff" d="M 263.5,283.5 C 271.528,283.169 279.528,283.502 287.5,284.5C 283.893,285.489 280.226,285.823 276.5,285.5C 275.833,322.833 275.167,322.833 274.5,285.5C 270.351,286.08 266.684,285.414 263.5,283.5 Z"/></g>
<g><path style="opacity:1" fill="#f1e9ff" d="M 242.5,283.5 C 243.496,283.414 244.329,283.748 245,284.5C 249.372,294.076 253.872,303.576 258.5,313C 257.365,313.749 256.365,313.583 255.5,312.5C 253.822,306.588 249.822,304.255 243.5,305.5C 237.178,304.255 233.178,306.588 231.5,312.5C 230.635,313.583 229.635,313.749 228.5,313C 233.309,303.216 237.976,293.383 242.5,283.5 Z"/></g>
<g><path style="opacity:1" fill="#935dff" d="M 242.5,287.5 C 243.376,287.369 244.043,287.702 244.5,288.5C 246.933,293.308 249.266,298.141 251.5,303C 246.167,303.667 240.833,303.667 235.5,303C 238.32,298.036 240.653,292.869 242.5,287.5 Z"/></g>
<g><path style="opacity:1" fill="#f2eaff" d="M 305.5,283.5 C 306.675,283.281 307.675,283.614 308.5,284.5C 312.833,293.833 317.167,303.167 321.5,312.5C 320.675,313.386 319.675,313.719 318.5,313.5C 318.202,310.735 317.202,308.235 315.5,306C 309.472,305.17 303.472,305.336 297.5,306.5C 296.528,309.132 295.195,311.465 293.5,313.5C 293.167,313 292.833,312.5 292.5,312C 296.743,302.428 301.076,292.928 305.5,283.5 Z"/></g>
<g><path style="opacity:1" fill="#9057ff" d="M 313.5,301.5 C 309.03,302.486 304.363,302.819 299.5,302.5C 301.729,297.042 304.229,291.708 307,286.5C 309.179,291.521 311.346,296.521 313.5,301.5 Z"/></g>
<g><path style="opacity:1" fill="#af87ff" d="M 313.5,301.5 C 314.043,301.56 314.376,301.893 314.5,302.5C 309.348,303.814 304.348,303.814 299.5,302.5C 304.363,302.819 309.03,302.486 313.5,301.5 Z"/></g>
<g><path style="opacity:1" fill="#f2eaff" d="M 179.5,283.5 C 180.75,283.577 181.583,284.244 182,285.5C 184.864,293.092 187.531,300.758 190,308.5C 193.58,300.766 196.58,292.766 199,284.5C 200.011,283.663 201.178,283.33 202.5,283.5C 204.827,292.315 207.66,300.981 211,309.5C 214.34,300.981 217.173,292.315 219.5,283.5C 220.675,283.281 221.675,283.614 222.5,284.5C 219.038,293.387 215.871,302.387 213,311.5C 212.29,312.973 211.124,313.64 209.5,313.5C 207.173,304.685 204.34,296.019 201,287.5C 197.813,295.389 194.813,303.389 192,311.5C 191.29,312.973 190.124,313.64 188.5,313.5C 185.506,303.517 182.506,293.517 179.5,283.5 Z"/></g>
<g><path style="opacity:1" fill="#f4eeff" d="M 149.5,328.5 C 152.482,328.104 155.149,328.771 157.5,330.5C 155.328,330.676 152.995,330.843 150.5,331C 149.643,331.689 148.977,332.522 148.5,333.5C 151.63,335.091 154.797,336.757 158,338.5C 158.896,341.025 158.396,343.192 156.5,345C 153.833,345.667 151.167,345.667 148.5,345C 146.842,344.275 146.342,343.108 147,341.5C 149.497,343.478 152.331,343.978 155.5,343C 156.022,342.439 156.355,341.772 156.5,341C 153.356,339.24 150.189,337.406 147,335.5C 145.916,332.341 146.75,330.008 149.5,328.5 Z"/></g>
<g><path style="opacity:1" fill="#f4edff" d="M 177.5,335.5 C 179.969,336.317 182.635,336.817 185.5,337C 182.635,337.183 179.969,337.683 177.5,338.5C 177.5,340.167 177.5,341.833 177.5,343.5C 180.898,343.18 184.232,343.513 187.5,344.5C 183.217,345.492 178.884,345.826 174.5,345.5C 174.5,339.833 174.5,334.167 174.5,328.5C 178.555,328.176 182.555,328.509 186.5,329.5C 183.572,330.484 180.572,330.817 177.5,330.5C 177.5,332.167 177.5,333.833 177.5,335.5 Z"/></g>
<g><path style="opacity:1" fill="#f5eeff" d="M 203.5,328.5 C 208.849,327.461 213.349,328.795 217,332.5C 217.855,335.956 216.689,338.456 213.5,340C 214.453,341.955 215.787,343.622 217.5,345C 214.519,345.381 212.519,344.048 211.5,341C 209.866,340.506 208.199,340.34 206.5,340.5C 206.5,342.167 206.5,343.833 206.5,345.5C 205.5,345.5 204.5,345.5 203.5,345.5C 203.5,339.833 203.5,334.167 203.5,328.5 Z"/></g>
<g><path style="opacity:1" fill="#f2ebff" d="M 231.5,328.5 C 232.496,328.414 233.329,328.748 234,329.5C 235.739,333.552 237.572,337.552 239.5,341.5C 241.606,336.95 243.939,332.617 246.5,328.5C 246.833,329 247.167,329.5 247.5,330C 245.196,335.084 243.196,340.251 241.5,345.5C 240.178,345.67 239.011,345.337 238,344.5C 235.538,339.248 233.371,333.915 231.5,328.5 Z"/></g>
<g><path style="opacity:1" fill="#fdfdff" d="M 263.5,328.5 C 264.814,330.915 265.481,333.748 265.5,337C 265.167,339.833 264.833,342.667 264.5,345.5C 263.505,339.872 263.171,334.206 263.5,328.5 Z"/></g>
<g><path style="opacity:1" fill="#f4edff" d="M 315.5,335.5 C 317.969,336.317 320.635,336.817 323.5,337C 320.635,337.183 317.969,337.683 315.5,338.5C 315.5,340.167 315.5,341.833 315.5,343.5C 318.898,343.18 322.232,343.513 325.5,344.5C 321.217,345.492 316.884,345.826 312.5,345.5C 312.5,339.833 312.5,334.167 312.5,328.5C 316.555,328.176 320.555,328.509 324.5,329.5C 321.572,330.484 318.572,330.817 315.5,330.5C 315.5,332.167 315.5,333.833 315.5,335.5 Z"/></g>
<g><path style="opacity:1" fill="#f2ebff" d="M 343.5,328.5 C 346.734,328.205 349.734,328.871 352.5,330.5C 349.943,330.782 347.277,330.949 344.5,331C 343.167,332.333 343.167,333.667 344.5,335C 347.806,335.692 350.64,337.192 353,339.5C 353.63,341.903 352.797,343.737 350.5,345C 346.882,345.966 343.549,345.466 340.5,343.5C 343.386,343.29 346.386,343.123 349.5,343C 350.022,342.439 350.355,341.772 350.5,341C 347.356,339.24 344.189,337.406 341,335.5C 340.333,334.167 340.333,332.833 341,331.5C 342.045,330.627 342.878,329.627 343.5,328.5 Z"/></g>
<g><path style="opacity:1" fill="#c3a5ff" d="M 212.5,331.5 C 210.5,331.5 208.5,331.5 206.5,331.5C 206.5,333.833 206.5,336.167 206.5,338.5C 205.527,336.052 205.194,333.385 205.5,330.5C 208.059,330.198 210.393,330.532 212.5,331.5 Z"/></g>
<g><path style="opacity:1" fill="#9058ff" d="M 212.5,331.5 C 215.134,333.54 215.134,335.707 212.5,338C 210.527,338.495 208.527,338.662 206.5,338.5C 206.5,336.167 206.5,333.833 206.5,331.5C 208.5,331.5 210.5,331.5 212.5,331.5 Z"/></g>
<g><path style="opacity:1" fill="#f2ebff" d="M 287.5,328.5 C 291.122,327.924 294.122,328.924 296.5,331.5C 295.424,332.656 294.424,332.489 293.5,331C 285.516,330.45 283.016,333.95 286,341.5C 289.204,344.113 292.37,344.113 295.5,341.5C 296.739,343.007 296.405,344.174 294.5,345C 286.034,346.53 281.868,343.03 282,334.5C 283.36,331.977 285.193,329.977 287.5,328.5 Z"/></g>
<g><path style="opacity:1" fill="#c9aeff" d="M 177.5,335.5 C 180.5,335.5 183.5,335.5 186.5,335.5C 186.5,336.5 186.5,337.5 186.5,338.5C 183.5,338.5 180.5,338.5 177.5,338.5C 179.969,337.683 182.635,337.183 185.5,337C 182.635,336.817 179.969,336.317 177.5,335.5 Z"/></g>
<g><path style="opacity:1" fill="#c9aeff" d="M 315.5,335.5 C 318.5,335.5 321.5,335.5 324.5,335.5C 324.5,336.5 324.5,337.5 324.5,338.5C 321.5,338.5 318.5,338.5 315.5,338.5C 317.969,337.683 320.635,337.183 323.5,337C 320.635,336.817 317.969,336.317 315.5,335.5 Z"/></g>
</svg>
